<svg width="259" height="370" viewBox="0 0 259 370" fill="none" xmlns="http://www.w3.org/2000/svg">
<g clip-path="url(#clip0_645_1387)">
<path d="M130.673 6.757e-06H128.446C128.102 6.757e-06 127.77 6.757e-06 127.426 6.757e-06C120.54 0.183083 113.692 1.07168 106.988 2.65186C92.7432 6.0587 79.3949 12.4827 67.8436 21.4903C56.2924 30.4978 46.807 41.8794 40.0276 54.8669C38.5961 57.5187 37.2972 60.343 36.1309 63.1804C35.3091 65.1605 34.5492 67.1715 33.8511 69.2134C27.4105 87.9727 26.5715 108.203 31.4368 127.431C36.3021 146.66 46.661 164.054 61.2475 177.489C59.6201 173.297 58.3779 168.965 57.5364 164.548C45.6618 150.578 38.0328 133.5 35.5506 115.332C33.0685 97.1634 35.837 78.6638 43.5291 62.0192C51.2212 45.3745 63.5153 31.2805 78.9587 21.4024C94.4021 11.5244 112.349 6.27525 130.68 6.27525C149.01 6.27525 166.957 11.5244 182.4 21.4024C197.844 31.2805 210.138 45.3745 217.83 62.0192C225.522 78.6638 228.291 97.1634 225.809 115.332C223.326 133.5 215.697 150.578 203.823 164.548C202.981 168.979 201.735 173.325 200.098 177.528C215.223 163.561 225.783 145.354 230.4 125.288C235.016 105.221 233.474 84.2276 225.975 65.0515C218.476 45.8754 205.369 29.4084 188.366 17.8027C171.363 6.19707 151.256 -0.0074742 130.673 6.757e-06Z" fill="url(#paint0_linear_645_1387)"/>
<path d="M99.0353 104.815C70.7641 131.678 68.3121 175.023 90.1285 201.104C89.4127 200.096 88.7235 199.035 88.1006 197.961C87.4773 196.891 86.911 195.789 86.404 194.66C85.7911 193.257 85.2644 191.818 84.8268 190.35C81.7482 180.779 82.455 170.391 86.8017 161.326C93.1239 147.178 106.033 136.266 115.046 123.497C122.488 113.361 128.413 102.194 132.635 90.3489C134.206 85.7479 135.351 81.0121 136.054 76.2013C137.38 66.3496 135.961 60.5686 135.696 59.6007C135.696 59.5609 127.32 77.9515 99.0353 104.815Z" fill="url(#paint1_linear_645_1387)"/>
<path d="M176.347 109.973C177.54 104.519 178.276 98.9748 178.547 93.3984C177.954 102.165 176.344 110.833 173.749 119.227C173.179 121.124 172.569 123.033 171.907 124.929C173.073 121.893 174.094 118.777 174.968 115.647C175.499 113.751 175.963 111.869 176.347 109.973Z" fill="url(#paint2_linear_645_1387)"/>
<path d="M133.205 163.089C142.986 157.852 152.86 154.537 160.601 145.852C165.903 139.912 169.296 132.5 171.907 124.955C171.553 125.901 171.182 126.829 170.793 127.74C171.204 126.414 171.589 125.008 171.946 123.63C173.255 118.599 174.172 113.474 174.69 108.302C175.021 104.974 175.194 101.593 175.194 98.185C175.194 95.6127 175.088 93.0669 174.902 90.5344C174.823 89.5134 174.743 88.5057 174.624 87.4847C173.109 73.1876 168.551 59.3809 161.255 46.9938C153.96 34.6068 144.097 23.9267 132.33 15.6725L131.548 15.0493L131.813 15.7653C132.012 16.362 136.399 29.2765 125.994 50.677C125.848 50.9819 125.703 51.2869 125.544 51.5786C124.603 53.4879 123.542 55.4636 122.336 57.5055C122.098 57.9165 121.846 58.3276 121.594 58.7386L120.825 59.9717C120.825 59.9717 120.825 59.9717 120.825 60.038L119.155 62.6236C114.876 68.9541 110.112 74.9432 104.907 80.5369C102.852 82.7777 100.652 85.0715 98.2797 87.4052C73.4149 111.922 67.7951 136.213 67.6891 152.707C67.6891 153.542 67.6891 154.351 67.6891 155.134C67.6891 155.571 67.6891 155.982 67.6891 156.459C67.6891 157.56 67.8084 158.634 67.8879 159.668C67.8879 160.013 67.9542 160.358 67.9807 160.689C68.047 161.299 68.1 161.869 68.1795 162.453C68.1795 162.837 68.2723 163.208 68.3253 163.58C68.3783 163.951 68.4843 164.64 68.5771 165.144C68.5771 165.409 68.6699 165.675 68.7097 165.927C68.7494 166.179 68.8157 166.483 68.8687 166.749C68.9217 167.014 69.041 167.637 69.1338 168.075C69.6813 170.452 70.4353 172.777 71.387 175.022C73.6977 180.574 76.6896 185.816 80.2938 190.629L81.3939 192.061C83.0807 194.205 84.9095 196.234 86.8679 198.133C87.915 199.168 89.0151 200.149 90.1417 201.103C68.312 175.022 70.7641 131.678 99.0352 104.815C127.306 77.9513 135.696 59.5607 135.696 59.5607C136.876 61.1651 138.347 63.0346 139.315 64.4534C140.587 66.3273 141.78 68.2411 142.893 70.1946C144.288 72.6212 145.541 75.127 146.644 77.6994C147.32 79.2242 147.97 80.7755 148.487 82.3666C153.788 97.8402 151.827 114.812 146.074 129.875C143.132 137.499 139.292 144.745 134.636 151.461C129.652 158.647 123.264 164.72 118.36 171.893C115.557 175.941 113.67 180.552 112.833 185.404C114.569 175.022 124.086 167.915 133.205 163.089Z" fill="url(#paint3_linear_645_1387)"/>
<path d="M192.437 132.593C191.691 127.854 190.677 123.162 189.402 118.538C187.015 109.661 183.359 101.176 178.547 93.3452C178.276 98.9215 177.54 104.465 176.347 109.919C176.148 110.9 175.936 111.842 175.697 112.783C175.605 113.168 175.499 113.552 175.393 113.95C171.178 129.742 160.946 142.166 147.758 151.487C134.199 161.074 115.948 166.603 112.833 185.351C111.979 190.204 112.598 195.2 114.609 199.698C127.943 228.948 165.068 209.47 179.554 192.458C179.687 192.312 179.793 192.167 179.912 192.021L180.138 191.756C180.177 191.703 180.221 191.654 180.27 191.61C185.843 184.822 189.812 176.863 191.881 168.326C190.211 169.864 188.488 171.363 186.685 172.782L185.559 173.696C185.466 173.763 185.386 173.842 185.293 173.895C184.83 174.253 184.352 174.598 183.875 174.943C185.307 172.941 186.619 170.965 187.852 168.817C188.262 168.128 188.647 167.491 189.044 166.735C189.217 166.43 189.376 166.112 189.548 165.794C189.813 165.264 190.078 164.72 190.33 164.176L190.887 162.85C191.904 160.381 192.642 157.806 193.087 155.173C193.233 154.417 193.339 153.648 193.432 152.826C193.955 146.067 193.621 139.268 192.437 132.593Z" fill="url(#paint4_linear_645_1387)"/>
<path d="M131.813 15.7651C132.012 16.3618 136.399 29.2763 125.994 50.6768C125.848 50.9818 125.703 51.2867 125.544 51.5784C124.603 53.4878 123.542 55.4634 122.336 57.5053C122.098 57.9164 121.846 58.3274 121.594 58.7384L120.825 59.9716C120.825 59.9716 120.825 59.9716 120.825 60.0378L119.155 62.6234C114.876 68.954 110.112 74.943 104.907 80.5367C102.852 82.7775 100.652 85.0714 98.2797 87.405C73.4149 111.921 67.7951 136.212 67.6891 152.707C67.6891 153.542 67.6891 154.351 67.6891 155.133C67.6891 155.571 67.6891 155.982 67.6891 156.459C67.6891 157.56 67.8084 158.634 67.8879 159.668C67.8879 160.013 67.9542 160.358 67.9807 160.689C68.047 161.299 68.1 161.869 68.1795 162.452C68.1795 162.837 68.2723 163.208 68.3253 163.58C68.3783 163.951 68.4843 164.64 68.5771 165.144C68.5771 165.409 68.6699 165.674 68.7097 165.926C68.7494 166.178 68.8157 166.483 68.8687 166.748C68.9217 167.014 69.041 167.637 69.1338 168.074C69.6813 170.452 70.4353 172.776 71.387 175.022C73.6977 180.574 76.6896 185.816 80.2938 190.628L81.3939 192.06C83.0807 194.205 84.9095 196.234 86.8679 198.133C87.915 199.167 89.0151 200.149 90.1417 201.103C68.312 175.022 70.7641 131.678 99.0352 104.814C127.306 77.9511 135.696 59.5605 135.696 59.5605C136.876 61.1649 138.347 63.0345 139.315 64.4532C140.587 66.3272 141.78 68.2409 142.893 70.1945C144.288 72.621 145.541 75.1268 146.644 77.6992C147.32 79.224 147.97 80.7754 148.487 82.3665C153.258 96.1694 152.158 111.166 147.784 124.942C168.62 74.8087 131.813 15.7651 131.813 15.7651Z" fill="url(#paint5_linear_645_1387)"/>
<path d="M203.823 164.535C215.697 150.565 223.326 133.487 225.809 115.319C228.291 97.1503 225.522 78.6508 217.83 62.0061C210.138 45.3615 197.844 31.2674 182.401 21.3894C166.957 11.5114 149.01 6.26221 130.68 6.26221C112.349 6.26221 94.4021 11.5114 78.9587 21.3894C63.5153 31.2674 51.2212 45.3615 43.5291 62.0061C35.8371 78.6508 33.0685 97.1503 35.5507 115.319C38.0328 133.487 45.6619 150.565 57.5364 164.535C56.797 160.703 56.3538 156.819 56.211 152.919C56.211 152.919 55.1904 130.962 65.3166 111.816C65.3166 111.816 52.8444 125.314 50.0213 142.312C43.8657 129.891 40.6718 116.212 40.6903 102.349C40.6903 101.566 40.6903 100.797 40.6903 100.015C40.6903 99.2326 40.6903 98.7818 40.7699 98.1586C40.7699 97.8316 40.7699 97.5001 40.7699 97.1642C40.7699 96.5808 40.8361 95.9974 40.8892 95.4272C40.9422 94.8571 41.0084 93.9156 41.088 93.1731C41.088 92.603 41.2073 92.0461 41.2735 91.4892C41.2735 91.1312 41.3663 90.7865 41.4061 90.4417C41.5784 89.1158 41.7904 87.7899 42.0158 86.5435C42.3074 84.8993 42.652 83.2685 43.0231 81.6641C43.1556 81.0674 43.3014 80.4973 43.4605 79.9139C43.6195 79.3305 43.7786 78.6542 43.9641 78.0178L44.0834 77.5935C44.2027 77.1692 44.322 76.7581 44.4545 76.3339C44.5871 75.9096 44.6799 75.5781 44.7991 75.2068L45.3956 73.377C45.833 72.1307 46.2836 70.8843 46.721 69.6512C46.8933 69.2004 47.0789 68.7495 47.2644 68.3253C47.7416 67.1584 48.2452 66.0049 48.7754 64.8513C48.9875 64.3872 49.1995 63.9364 49.4249 63.5254C49.6502 63.1144 49.9285 62.4779 50.1936 61.9343L50.7238 60.9266C51.2009 59.9984 51.7046 59.0835 52.2082 58.1819C52.4601 57.7444 52.6986 57.3201 52.9505 56.856C53.3348 56.193 53.7325 55.5301 54.1433 54.8804C54.7265 53.9389 55.323 53.0108 55.9459 52.0959C56.7544 50.8893 57.5894 49.7225 58.4509 48.5557C58.5305 48.4496 58.61 48.37 58.6763 48.264L60.1607 46.3546C60.6644 45.7182 61.1813 45.0287 61.6982 44.4718C62.2151 43.9149 63.0236 42.9868 63.6333 42.2575C64.243 41.5283 64.6406 41.1437 65.1708 40.6001C65.701 40.0565 66.1516 39.5659 66.6553 39.062C67.159 38.5582 67.6493 38.0543 68.1795 37.5637C68.7097 37.0731 69.2001 36.5693 69.7303 36.092C70.2604 35.6146 70.7906 35.1108 71.334 34.66C74.0164 32.2758 76.845 30.0616 79.8034 28.0303C80.3601 27.6458 80.93 27.2745 81.5 26.9165C81.5286 26.8735 81.5705 26.8409 81.6193 26.8237C82.1892 26.4392 82.7724 26.0812 83.3423 25.7365L83.4351 25.6702L84.9196 24.7685C85.7148 24.3045 86.4968 23.8537 87.3053 23.4426L89.0283 22.5145C89.6513 22.1962 90.2742 21.8648 90.9237 21.5598L92.1166 20.9896C92.5142 20.7908 92.9251 20.6051 93.3095 20.4328L94.9927 19.6902C95.5096 19.4648 96.0266 19.2394 96.57 19.0273L97.1002 18.8151C97.5243 18.6428 97.9484 18.4571 98.4256 18.3113C99.2871 17.9798 100.162 17.6483 101.076 17.3566C101.991 17.0649 102.402 16.8793 103.157 16.6539L105.106 16.0572C105.195 16.0185 105.288 15.9918 105.384 15.9776C105.941 15.8185 106.497 15.6462 107.054 15.5136L107.597 15.3545C108.128 15.2086 108.658 15.076 109.201 14.9567C109.339 14.9089 109.481 14.8734 109.625 14.8506C110.315 14.6782 110.951 14.5324 111.68 14.3865C113.067 14.0683 114.472 13.8031 115.895 13.591C116.756 13.4319 117.631 13.2993 118.545 13.1799L120.414 12.9545H120.653L122.641 12.7556H122.933C123.648 12.7556 124.364 12.6496 125.08 12.6098L127.24 12.3844H128.3C129.056 12.3844 129.851 12.3844 130.62 12.3844C131.084 12.3844 131.561 12.3844 132.025 12.3844H133.536C134.861 12.3844 136.067 12.4772 137.313 12.57C137.83 12.57 138.334 12.6496 138.824 12.7026C138.974 12.6889 139.125 12.6889 139.275 12.7026C139.858 12.7026 140.455 12.8087 141.025 12.8882C141.594 12.9678 142.27 13.0208 142.867 13.1136C143.463 13.2065 144.338 13.3258 145.067 13.4319L146.525 13.697C147.188 13.8031 147.85 13.9357 148.5 14.0683C149.149 14.2009 149.825 14.3335 150.435 14.4793C151.045 14.6252 151.76 14.7711 152.383 14.9434C153.006 15.1158 153.709 15.2616 154.292 15.4473C154.875 15.6329 155.617 15.7788 156.201 15.9776L158.096 16.5478C159.262 16.9191 160.415 17.3168 161.568 17.7411C162.258 18.0063 162.894 18.2582 163.636 18.5367C164.856 19.014 166.048 19.5046 167.228 20.0482C167.732 20.2604 168.222 20.4725 168.699 20.7245C169.415 21.0427 170.117 21.3874 170.82 21.7454C171.522 22.1034 171.933 22.3023 172.477 22.594C173.63 23.1907 174.756 23.8139 175.87 24.4768C177.557 25.4492 179.192 26.4746 180.774 27.553L182.378 28.6535C182.908 29.0115 183.425 29.396 183.942 29.7805C184.458 30.1651 184.949 30.5231 185.466 30.9208C185.943 31.2788 186.42 31.6634 186.897 32.0479L187.017 32.1407L188.448 33.3208C188.938 33.7185 189.429 34.1428 189.906 34.5804C190.383 35.018 190.86 35.4157 191.337 35.9063C192.292 36.7549 193.219 37.6433 194.121 38.5582C194.585 39.009 195.035 39.4731 195.446 39.8841C195.857 40.2952 196.268 40.7327 196.652 41.21C197.62 42.231 198.548 43.305 199.449 44.379C199.807 44.7768 200.151 45.2011 200.496 45.6254C200.841 46.0497 201.424 46.7922 201.888 47.3889C202.352 47.9855 202.564 48.2772 202.895 48.7148C204.433 50.7832 205.89 52.9312 207.242 55.1323C207.521 55.5831 207.799 56.0339 208.064 56.4582C208.329 56.8825 208.82 57.7841 209.191 58.4338C209.562 59.0835 209.827 59.5476 210.105 60.131C210.384 60.7144 210.728 61.2713 211.007 61.8547C211.895 63.6182 212.73 65.395 213.485 67.1584C213.989 68.3253 214.466 69.5186 214.903 70.7252C215.155 71.3749 215.394 72.0511 215.619 72.7008C215.844 73.3505 216.017 73.8544 216.202 74.4378C216.388 75.0212 216.56 75.5648 216.732 76.135C217.09 77.3283 217.422 78.5349 217.74 79.7547C217.872 80.2719 218.005 80.789 218.124 81.3061C218.495 82.8574 218.827 84.4088 219.105 85.9866C219.211 86.5037 219.304 87.0473 219.37 87.591C219.436 88.1346 219.516 88.413 219.569 88.8241C219.622 89.2351 219.715 89.8053 219.781 90.2959C219.847 90.7865 219.913 91.3566 219.966 91.9002C219.972 91.9354 219.972 91.9712 219.966 92.0063C219.966 92.5367 220.099 93.0538 220.139 93.5842C220.178 94.1145 220.232 94.5123 220.258 94.9896V95.4139C220.258 95.9311 220.338 96.4614 220.364 96.9918C220.364 97.9465 220.457 98.9144 220.47 99.8691C220.483 100.824 220.47 101.42 220.47 102.203C220.47 103.9 220.47 105.597 220.324 107.268C220.324 107.891 220.245 108.527 220.205 109.137V109.628C220.205 110.264 220.099 110.888 220.033 111.511V112.134C219.966 112.823 219.874 113.46 219.781 114.202C219.688 114.945 219.595 115.621 219.476 116.324C219.092 118.764 218.615 121.15 218.045 123.51C217.939 123.948 217.833 124.372 217.713 124.836C217.594 125.3 217.501 125.711 217.369 126.162C217.236 126.613 217.21 126.759 217.117 127.051C216.971 127.554 216.825 128.058 216.666 128.575C216.507 129.092 216.441 129.331 216.308 129.716C216.176 130.1 216.083 130.432 215.964 130.79L215.593 131.903C215.407 132.46 215.195 133.004 214.996 133.548C214.797 134.091 214.532 134.781 214.294 135.377C214.055 135.974 213.936 136.279 213.75 136.703C213.061 138.347 212.332 139.992 211.55 141.583L211.205 142.272C208.409 125.287 195.897 111.776 195.897 111.776C206.036 130.869 205.002 152.88 205.002 152.88C205.006 152.906 205.006 152.933 205.002 152.959C204.914 156.843 204.519 160.713 203.823 164.535Z" fill="url(#paint6_linear_645_1387)"/>
<g style="mix-blend-mode:screen">
<g style="mix-blend-mode:screen">
<path d="M130.673 6.757e-06H128.446C128.102 6.757e-06 127.77 6.757e-06 127.426 6.757e-06C120.54 0.183083 113.692 1.07168 106.988 2.65186C92.7432 6.0587 79.3949 12.4827 67.8436 21.4903C56.2924 30.4978 46.807 41.8794 40.0276 54.8669C38.5961 57.5187 37.2972 60.343 36.1309 63.1804C35.3091 65.1605 34.5492 67.1715 33.8511 69.2134C27.4105 87.9727 26.5715 108.203 31.4368 127.431C36.3021 146.66 46.661 164.054 61.2475 177.489C59.6201 173.297 58.3779 168.965 57.5364 164.548C45.6618 150.578 38.0328 133.5 35.5506 115.332C33.0685 97.1634 35.837 78.6638 43.5291 62.0192C51.2212 45.3745 63.5153 31.2805 78.9587 21.4024C94.4021 11.5244 112.349 6.27525 130.68 6.27525C149.01 6.27525 166.957 11.5244 182.4 21.4024C197.844 31.2805 210.138 45.3745 217.83 62.0192C225.522 78.6638 228.291 97.1634 225.809 115.332C223.326 133.5 215.697 150.578 203.823 164.548C202.981 168.979 201.735 173.325 200.098 177.528C215.223 163.561 225.783 145.354 230.4 125.288C235.016 105.221 233.474 84.2276 225.975 65.0515C218.476 45.8754 205.369 29.4084 188.366 17.8027C171.363 6.19707 151.256 -0.0074742 130.673 6.757e-06Z" fill="#0D161C"/>
</g>
<g style="mix-blend-mode:screen">
<path d="M99.0353 104.815C70.7641 131.678 68.3121 175.023 90.1285 201.104C89.4127 200.096 88.7235 199.035 88.1006 197.961C87.4773 196.891 86.911 195.789 86.404 194.66C85.7911 193.257 85.2644 191.818 84.8268 190.35C81.7482 180.779 82.455 170.391 86.8017 161.326C93.1239 147.178 106.033 136.266 115.046 123.497C122.488 113.361 128.413 102.194 132.635 90.3489C134.206 85.7479 135.351 81.0121 136.054 76.2013C137.38 66.3496 135.961 60.5686 135.696 59.6007C135.696 59.5609 127.32 77.9515 99.0353 104.815Z" fill="#0D161C"/>
</g>
<g style="mix-blend-mode:screen">
<path d="M176.347 109.973C177.54 104.519 178.276 98.9748 178.547 93.3984C177.954 102.165 176.344 110.833 173.749 119.227C173.179 121.124 172.569 123.033 171.907 124.929C173.073 121.893 174.094 118.777 174.968 115.647C175.499 113.751 175.963 111.869 176.347 109.973Z" fill="#0D161C"/>
</g>
<g style="mix-blend-mode:screen">
<path d="M133.205 163.089C142.986 157.852 152.86 154.537 160.601 145.852C165.903 139.912 169.296 132.5 171.907 124.955C171.553 125.901 171.182 126.829 170.793 127.74C171.204 126.414 171.589 125.008 171.946 123.63C173.255 118.599 174.172 113.474 174.69 108.302C175.021 104.974 175.194 101.593 175.194 98.185C175.194 95.6127 175.088 93.0669 174.902 90.5344C174.823 89.5134 174.743 88.5057 174.624 87.4847C173.109 73.1876 168.551 59.3809 161.255 46.9938C153.96 34.6068 144.097 23.9267 132.33 15.6725L131.548 15.0493L131.813 15.7653C132.012 16.362 136.399 29.2765 125.994 50.677C125.848 50.9819 125.703 51.2869 125.544 51.5786C124.603 53.4879 123.542 55.4636 122.336 57.5055C122.098 57.9165 121.846 58.3276 121.594 58.7386L120.825 59.9717C120.825 59.9717 120.825 59.9717 120.825 60.038L119.155 62.6236C114.876 68.9541 110.112 74.9432 104.907 80.5369C102.852 82.7777 100.652 85.0715 98.2797 87.4052C73.4149 111.922 67.7951 136.213 67.6891 152.707C67.6891 153.542 67.6891 154.351 67.6891 155.134C67.6891 155.571 67.6891 155.982 67.6891 156.459C67.6891 157.56 67.8084 158.634 67.8879 159.668C67.8879 160.013 67.9542 160.358 67.9807 160.689C68.047 161.299 68.1 161.869 68.1795 162.453C68.1795 162.837 68.2723 163.208 68.3253 163.58C68.3783 163.951 68.4843 164.64 68.5771 165.144C68.5771 165.409 68.6699 165.675 68.7097 165.927C68.7494 166.179 68.8157 166.483 68.8687 166.749C68.9217 167.014 69.041 167.637 69.1338 168.075C69.6813 170.452 70.4353 172.777 71.387 175.022C73.6977 180.574 76.6896 185.816 80.2938 190.629L81.3939 192.061C83.0807 194.205 84.9095 196.234 86.8679 198.133C87.915 199.168 89.0151 200.149 90.1417 201.103C68.312 175.022 70.7641 131.678 99.0352 104.815C127.306 77.9513 135.696 59.5607 135.696 59.5607C136.876 61.1651 138.347 63.0346 139.315 64.4534C140.587 66.3273 141.78 68.2411 142.893 70.1946C144.288 72.6212 145.541 75.127 146.644 77.6994C147.32 79.2242 147.97 80.7755 148.487 82.3666C153.788 97.8402 151.827 114.812 146.074 129.875C143.132 137.499 139.292 144.745 134.636 151.461C129.652 158.647 123.264 164.72 118.36 171.893C115.557 175.941 113.67 180.552 112.833 185.404C114.569 175.022 124.086 167.915 133.205 163.089Z" fill="#0D161C"/>
</g>
<g style="mix-blend-mode:screen">
<path d="M192.437 132.593C191.691 127.854 190.677 123.162 189.402 118.538C187.015 109.661 183.359 101.176 178.547 93.3452C178.276 98.9215 177.54 104.465 176.347 109.919C176.148 110.9 175.936 111.842 175.697 112.783C175.605 113.168 175.499 113.552 175.393 113.95C171.178 129.742 160.946 142.166 147.758 151.487C134.199 161.074 115.948 166.603 112.833 185.351C111.979 190.204 112.598 195.2 114.609 199.698C127.943 228.948 165.068 209.47 179.554 192.458C179.687 192.312 179.793 192.167 179.912 192.021L180.138 191.756C180.177 191.703 180.221 191.654 180.27 191.61C185.843 184.822 189.812 176.863 191.881 168.326C190.211 169.864 188.488 171.363 186.685 172.782L185.559 173.696C185.466 173.763 185.386 173.842 185.293 173.895C184.83 174.253 184.352 174.598 183.875 174.943C185.307 172.941 186.619 170.965 187.852 168.817C188.262 168.128 188.647 167.491 189.044 166.735C189.217 166.43 189.376 166.112 189.548 165.794C189.813 165.264 190.078 164.72 190.33 164.176L190.887 162.85C191.904 160.381 192.642 157.806 193.087 155.173C193.233 154.417 193.339 153.648 193.432 152.826C193.955 146.067 193.621 139.268 192.437 132.593Z" fill="#0D161C"/>
</g>
<g style="mix-blend-mode:screen">
<path d="M131.813 15.7651C132.012 16.3618 136.399 29.2763 125.994 50.6768C125.848 50.9818 125.703 51.2867 125.544 51.5784C124.603 53.4878 123.542 55.4634 122.336 57.5053C122.098 57.9164 121.846 58.3274 121.594 58.7384L120.825 59.9716C120.825 59.9716 120.825 59.9716 120.825 60.0378L119.155 62.6234C114.876 68.954 110.112 74.943 104.907 80.5367C102.852 82.7775 100.652 85.0714 98.2797 87.405C73.4149 111.921 67.7951 136.212 67.6891 152.707C67.6891 153.542 67.6891 154.351 67.6891 155.133C67.6891 155.571 67.6891 155.982 67.6891 156.459C67.6891 157.56 67.8084 158.634 67.8879 159.668C67.8879 160.013 67.9542 160.358 67.9807 160.689C68.047 161.299 68.1 161.869 68.1795 162.452C68.1795 162.837 68.2723 163.208 68.3253 163.58C68.3783 163.951 68.4843 164.64 68.5771 165.144C68.5771 165.409 68.6699 165.674 68.7097 165.926C68.7494 166.178 68.8157 166.483 68.8687 166.748C68.9217 167.014 69.041 167.637 69.1338 168.074C69.6813 170.452 70.4353 172.776 71.387 175.022C73.6977 180.574 76.6896 185.816 80.2938 190.628L81.3939 192.06C83.0807 194.205 84.9095 196.234 86.8679 198.133C87.915 199.167 89.0151 200.149 90.1417 201.103C68.312 175.022 70.7641 131.678 99.0352 104.814C127.306 77.9511 135.696 59.5605 135.696 59.5605C136.876 61.1649 138.347 63.0345 139.315 64.4532C140.587 66.3272 141.78 68.2409 142.893 70.1945C144.288 72.621 145.541 75.1268 146.644 77.6992C147.32 79.224 147.97 80.7754 148.487 82.3665C153.258 96.1694 152.158 111.166 147.784 124.942C168.62 74.8087 131.813 15.7651 131.813 15.7651Z" fill="#0D161C"/>
</g>
<g style="mix-blend-mode:screen">
<path d="M203.823 164.535C215.697 150.565 223.326 133.487 225.809 115.319C228.291 97.1503 225.522 78.6508 217.83 62.0061C210.138 45.3615 197.844 31.2674 182.401 21.3894C166.957 11.5114 149.01 6.26221 130.68 6.26221C112.349 6.26221 94.4021 11.5114 78.9587 21.3894C63.5153 31.2674 51.2212 45.3615 43.5291 62.0061C35.8371 78.6508 33.0685 97.1503 35.5507 115.319C38.0328 133.487 45.6619 150.565 57.5364 164.535C56.797 160.703 56.3538 156.819 56.211 152.919C56.211 152.919 55.1904 130.962 65.3166 111.816C65.3166 111.816 52.8444 125.314 50.0213 142.312C43.8657 129.891 40.6718 116.212 40.6903 102.349C40.6903 101.566 40.6903 100.797 40.6903 100.015C40.6903 99.2326 40.6903 98.7818 40.7699 98.1586C40.7699 97.8316 40.7699 97.5001 40.7699 97.1642C40.7699 96.5808 40.8361 95.9974 40.8892 95.4272C40.9422 94.8571 41.0084 93.9156 41.088 93.1731C41.088 92.603 41.2073 92.0461 41.2735 91.4892C41.2735 91.1312 41.3663 90.7865 41.4061 90.4417C41.5784 89.1158 41.7904 87.7899 42.0158 86.5435C42.3074 84.8993 42.652 83.2685 43.0231 81.6641C43.1556 81.0674 43.3014 80.4973 43.4605 79.9139C43.6195 79.3305 43.7786 78.6542 43.9641 78.0178L44.0834 77.5935C44.2027 77.1692 44.322 76.7581 44.4545 76.3339C44.5871 75.9096 44.6799 75.5781 44.7991 75.2068L45.3956 73.377C45.833 72.1307 46.2836 70.8843 46.721 69.6512C46.8933 69.2004 47.0789 68.7495 47.2644 68.3253C47.7416 67.1584 48.2452 66.0049 48.7754 64.8513C48.9875 64.3872 49.1995 63.9364 49.4249 63.5254C49.6502 63.1144 49.9285 62.4779 50.1936 61.9343L50.7238 60.9266C51.2009 59.9984 51.7046 59.0835 52.2082 58.1819C52.4601 57.7444 52.6986 57.3201 52.9505 56.856C53.3348 56.193 53.7325 55.5301 54.1433 54.8804C54.7265 53.9389 55.323 53.0108 55.9459 52.0959C56.7544 50.8893 57.5894 49.7225 58.4509 48.5557C58.5305 48.4496 58.61 48.37 58.6763 48.264L60.1607 46.3546C60.6644 45.7182 61.1813 45.0287 61.6982 44.4718C62.2151 43.9149 63.0236 42.9868 63.6333 42.2575C64.243 41.5283 64.6406 41.1437 65.1708 40.6001C65.701 40.0565 66.1516 39.5659 66.6553 39.062C67.159 38.5582 67.6493 38.0543 68.1795 37.5637C68.7097 37.0731 69.2001 36.5693 69.7303 36.092C70.2604 35.6146 70.7906 35.1108 71.334 34.66C74.0164 32.2758 76.845 30.0616 79.8034 28.0303C80.3601 27.6458 80.93 27.2745 81.5 26.9165C81.5286 26.8735 81.5705 26.8409 81.6193 26.8237C82.1892 26.4392 82.7724 26.0812 83.3423 25.7365L83.4351 25.6702L84.9196 24.7685C85.7148 24.3045 86.4968 23.8537 87.3053 23.4426L89.0283 22.5145C89.6513 22.1962 90.2742 21.8648 90.9237 21.5598L92.1166 20.9896C92.5142 20.7908 92.9251 20.6051 93.3095 20.4328L94.9927 19.6902C95.5096 19.4648 96.0266 19.2394 96.57 19.0273L97.1002 18.8151C97.5243 18.6428 97.9484 18.4571 98.4256 18.3113C99.2871 17.9798 100.162 17.6483 101.076 17.3566C101.991 17.0649 102.402 16.8793 103.157 16.6539L105.106 16.0572C105.195 16.0185 105.288 15.9918 105.384 15.9776C105.941 15.8185 106.497 15.6462 107.054 15.5136L107.597 15.3545C108.128 15.2086 108.658 15.076 109.201 14.9567C109.339 14.9089 109.481 14.8734 109.625 14.8506C110.315 14.6782 110.951 14.5324 111.68 14.3865C113.067 14.0683 114.472 13.8031 115.895 13.591C116.756 13.4319 117.631 13.2993 118.545 13.1799L120.414 12.9545H120.653L122.641 12.7556H122.933C123.648 12.7556 124.364 12.6496 125.08 12.6098L127.24 12.3844H128.3C129.056 12.3844 129.851 12.3844 130.62 12.3844C131.084 12.3844 131.561 12.3844 132.025 12.3844H133.536C134.861 12.3844 136.067 12.4772 137.313 12.57C137.83 12.57 138.334 12.6496 138.824 12.7026C138.974 12.6889 139.125 12.6889 139.275 12.7026C139.858 12.7026 140.455 12.8087 141.025 12.8882C141.594 12.9678 142.27 13.0208 142.867 13.1136C143.463 13.2065 144.338 13.3258 145.067 13.4319L146.525 13.697C147.188 13.8031 147.85 13.9357 148.5 14.0683C149.149 14.2009 149.825 14.3335 150.435 14.4793C151.045 14.6252 151.76 14.7711 152.383 14.9434C153.006 15.1158 153.709 15.2616 154.292 15.4473C154.875 15.6329 155.617 15.7788 156.201 15.9776L158.096 16.5478C159.262 16.9191 160.415 17.3168 161.568 17.7411C162.258 18.0063 162.894 18.2582 163.636 18.5367C164.856 19.014 166.048 19.5046 167.228 20.0482C167.732 20.2604 168.222 20.4725 168.699 20.7245C169.415 21.0427 170.117 21.3874 170.82 21.7454C171.522 22.1034 171.933 22.3023 172.477 22.594C173.63 23.1907 174.756 23.8139 175.87 24.4768C177.557 25.4492 179.192 26.4746 180.774 27.553L182.378 28.6535C182.908 29.0115 183.425 29.396 183.942 29.7805C184.458 30.1651 184.949 30.5231 185.466 30.9208C185.943 31.2788 186.42 31.6634 186.897 32.0479L187.017 32.1407L188.448 33.3208C188.938 33.7185 189.429 34.1428 189.906 34.5804C190.383 35.018 190.86 35.4157 191.337 35.9063C192.292 36.7549 193.219 37.6433 194.121 38.5582C194.585 39.009 195.035 39.4731 195.446 39.8841C195.857 40.2952 196.268 40.7327 196.652 41.21C197.62 42.231 198.548 43.305 199.449 44.379C199.807 44.7768 200.151 45.2011 200.496 45.6254C200.841 46.0497 201.424 46.7922 201.888 47.3889C202.352 47.9855 202.564 48.2772 202.895 48.7148C204.433 50.7832 205.89 52.9312 207.242 55.1323C207.521 55.5831 207.799 56.0339 208.064 56.4582C208.329 56.8825 208.82 57.7841 209.191 58.4338C209.562 59.0835 209.827 59.5476 210.105 60.131C210.384 60.7144 210.728 61.2713 211.007 61.8547C211.895 63.6182 212.73 65.395 213.485 67.1584C213.989 68.3253 214.466 69.5186 214.903 70.7252C215.155 71.3749 215.394 72.0511 215.619 72.7008C215.844 73.3505 216.017 73.8544 216.202 74.4378C216.388 75.0212 216.56 75.5648 216.732 76.135C217.09 77.3283 217.422 78.5349 217.74 79.7547C217.872 80.2719 218.005 80.789 218.124 81.3061C218.495 82.8574 218.827 84.4088 219.105 85.9866C219.211 86.5037 219.304 87.0473 219.37 87.591C219.436 88.1346 219.516 88.413 219.569 88.8241C219.622 89.2351 219.715 89.8053 219.781 90.2959C219.847 90.7865 219.913 91.3566 219.966 91.9002C219.972 91.9354 219.972 91.9712 219.966 92.0063C219.966 92.5367 220.099 93.0538 220.139 93.5842C220.178 94.1145 220.232 94.5123 220.258 94.9896V95.4139C220.258 95.9311 220.338 96.4614 220.364 96.9918C220.364 97.9465 220.457 98.9144 220.47 99.8691C220.483 100.824 220.47 101.42 220.47 102.203C220.47 103.9 220.47 105.597 220.324 107.268C220.324 107.891 220.245 108.527 220.205 109.137V109.628C220.205 110.264 220.099 110.888 220.033 111.511V112.134C219.966 112.823 219.874 113.46 219.781 114.202C219.688 114.945 219.595 115.621 219.476 116.324C219.092 118.764 218.615 121.15 218.045 123.51C217.939 123.948 217.833 124.372 217.713 124.836C217.594 125.3 217.501 125.711 217.369 126.162C217.236 126.613 217.21 126.759 217.117 127.051C216.971 127.554 216.825 128.058 216.666 128.575C216.507 129.092 216.441 129.331 216.308 129.716C216.176 130.1 216.083 130.432 215.964 130.79L215.593 131.903C215.407 132.46 215.195 133.004 214.996 133.548C214.797 134.091 214.532 134.781 214.294 135.377C214.055 135.974 213.936 136.279 213.75 136.703C213.061 138.347 212.332 139.992 211.55 141.583L211.205 142.272C208.409 125.287 195.897 111.776 195.897 111.776C206.036 130.869 205.002 152.88 205.002 152.88C205.006 152.906 205.006 152.933 205.002 152.959C204.914 156.843 204.519 160.713 203.823 164.535Z" fill="#0D161C"/>
</g>
</g>
<path d="M0 300.283V299.182H12.8433C12.6667 301.215 13.1702 303.248 14.2748 304.963C14.699 305.5 15.2449 305.927 15.8672 306.211C16.4895 306.495 17.1703 306.626 17.8534 306.594C19.084 306.63 20.296 306.288 21.326 305.613C21.9033 305.219 22.3689 304.682 22.6778 304.055C22.9866 303.427 23.1282 302.731 23.0888 302.033C23.1583 300.898 22.8558 299.771 22.2273 298.824C20.8442 297.364 19.1624 296.22 17.2967 295.469C13.0156 293.587 10.5636 292.46 9.90088 292.075C7.34233 290.66 5.12181 288.706 3.39307 286.347C2.61149 285.222 1.9872 283.995 1.53749 282.701C1.06808 281.186 0.839969 279.606 0.861522 278.02C0.845489 275.937 1.24386 273.871 2.03344 271.943C2.82302 270.015 3.98805 268.263 5.46072 266.79C7.25898 264.957 9.42278 263.523 11.8114 262.582C14.2 261.641 16.7599 261.213 19.3246 261.327C23.5067 261.126 27.6233 262.424 30.9353 264.986C34.4697 267.93 36.2369 272.35 36.2369 278.246H23.8575C23.8918 276.935 23.465 275.654 22.6514 274.626C22.2099 274.066 21.6425 273.618 20.9953 273.318C20.3482 273.019 19.6395 272.876 18.927 272.902C17.9139 272.882 16.9254 273.215 16.1303 273.844C15.6311 274.228 15.2301 274.725 14.9605 275.294C14.6909 275.864 14.5603 276.489 14.5796 277.119C14.5903 277.74 14.737 278.352 15.0095 278.911C15.282 279.47 15.6736 279.963 16.1568 280.354C17.995 281.784 20.0082 282.974 22.1477 283.894C23.6587 284.623 24.9576 285.3 26.124 285.896C26.9458 286.347 27.8735 286.877 28.9074 287.474C31.4037 288.902 33.4828 290.959 34.938 293.441C36.1758 295.646 36.8112 298.138 36.7804 300.667C36.8139 305.025 35.1831 309.232 32.2209 312.428C30.4252 314.409 28.215 315.97 25.7477 316.999C23.2804 318.028 20.6167 318.5 17.9462 318.381C12.3971 318.381 8.07622 316.936 4.98357 314.046C1.66119 310.925 0 306.338 0 300.283Z" fill="white"/>
<path d="M64.9455 299.66V317.334H51.5322V262.335H69.7567C77.4176 262.335 83.033 264.182 86.6028 267.877C89.5541 270.945 91.0341 275.201 91.0429 280.646C91.0429 287.7 88.7897 292.712 84.2701 295.642C80.2231 298.321 73.7816 299.66 64.9455 299.66ZM65.0913 274.6V287.726C69.5888 287.726 72.6815 287.346 74.3692 286.586C75.3923 286.106 76.2414 285.32 76.7993 284.337C77.3571 283.354 77.5964 282.222 77.4839 281.097C77.5866 280.152 77.4299 279.197 77.0305 278.335C76.6311 277.473 76.0043 276.736 75.2175 276.204C73.4414 275.077 70.0483 274.547 65.0515 274.547L65.0913 274.6Z" fill="white"/>
<path d="M132.9 317.281L130.249 309.246H112.117L109.175 317.281H94.5951L115.696 262.335H126.577L147.784 317.281H132.9ZM121.156 280.275L115.696 297.949H126.577L121.156 280.275Z" fill="white"/>
<path d="M183.862 317.281L173.259 299.607V317.281H159.938V262.335H178.163C183.747 262.335 188.245 263.276 191.656 265.159C194.476 266.664 196.705 269.081 197.978 272.014C199.095 274.724 199.637 277.636 199.568 280.566C199.829 284.549 198.729 288.502 196.448 291.776C194.167 295.05 190.841 297.452 187.017 298.586L200.47 317.281H183.862ZM173.259 274.547V287.726C177.951 287.726 181.211 287.276 182.934 286.401C183.893 285.909 184.683 285.14 185.2 284.195C185.718 283.249 185.94 282.17 185.837 281.097C185.837 278.684 185.161 277.053 183.809 276.204C182.126 275.077 178.6 274.547 173.312 274.547H173.259Z" fill="white"/>
<path d="M242.233 317.281L227.733 293.415V317.281H214.36V262.335H227.733V288.151L244.009 262.335H259L240.842 290.179L258.364 317.242L242.233 317.281Z" fill="white"/>
<path d="M40.3192 363.715H47.8343V369.483H33.9042V343.203H40.3192V363.715Z" fill="white"/>
<path d="M75.8537 369.483L74.5282 365.638H65.913L64.5081 369.483H57.5364L67.5963 343.203H72.898L83.0109 369.483H75.8537ZM70.2471 351.782L67.5963 360.228H72.898L70.2471 351.782Z" fill="white"/>
<path d="M94.4626 359.658V343.203H100.931V359.326C100.812 360.57 101.08 361.821 101.699 362.906C101.989 363.227 102.349 363.476 102.752 363.632C103.155 363.789 103.589 363.849 104.019 363.808C106.232 363.808 107.332 362.31 107.332 359.326V343.15H113.774V359.605C113.922 362.282 113.05 364.916 111.335 366.977C110.396 367.96 109.253 368.727 107.988 369.224C106.722 369.721 105.363 369.936 104.006 369.854C100.533 369.854 98.0191 368.895 96.464 366.977C94.9899 364.833 94.2845 362.253 94.4626 359.658Z" fill="white"/>
<path d="M145.266 369.483L135.458 354.898V369.483H129.056V343.203H134.888L144.497 357.788V343.203H150.872V369.483H145.266Z" fill="white"/>
<path d="M184.485 359.724H191.457C190.689 362.62 189.029 365.199 186.712 367.096C184.416 369.004 181.518 370.033 178.534 370C175.048 370.052 171.681 368.738 169.15 366.341C167.758 365.071 166.657 363.516 165.923 361.781C165.188 360.046 164.838 358.173 164.895 356.29C164.899 354.137 165.398 352.014 166.353 350.085C167.359 347.977 168.91 346.178 170.846 344.874C173.121 343.4 175.785 342.643 178.494 342.699C180.076 342.688 181.649 342.944 183.146 343.455C184.972 344.074 186.62 345.13 187.944 346.531C189.645 348.426 190.872 350.699 191.523 353.161H184.631C183.97 351.863 182.966 350.771 181.728 350.005C180.743 349.448 179.626 349.164 178.494 349.183C176.762 349.141 175.083 349.779 173.815 350.96C172.542 352.102 171.735 353.674 171.549 355.375C171.542 355.481 171.542 355.587 171.549 355.693C171.541 355.821 171.541 355.95 171.549 356.078C171.549 357.162 171.765 358.235 172.185 359.234C172.638 360.378 173.388 361.381 174.359 362.137C175.557 363.027 177.016 363.493 178.507 363.463C179.486 363.465 180.451 363.243 181.331 362.814C182.652 362.102 183.746 361.031 184.485 359.724Z" fill="white"/>
<path d="M225.096 343.203V369.483H218.694V359.459H212.067V369.483H205.705V343.203H212.067V353.187H218.694V343.203H225.096Z" fill="white"/>
</g>
<defs>
<linearGradient id="paint0_linear_645_1387" x1="133.284" y1="-5.48933" x2="125.856" y2="301.038" gradientUnits="userSpaceOnUse">
<stop stop-color="#2B5E0F"/>
<stop offset="0.08" stop-color="#3D821F"/>
<stop offset="0.2" stop-color="#53B134"/>
<stop offset="0.31" stop-color="#63D243"/>
<stop offset="0.4" stop-color="#6DE74C"/>
<stop offset="0.46" stop-color="#71EE4F"/>
</linearGradient>
<linearGradient id="paint1_linear_645_1387" x1="83.5014" y1="208.582" x2="130.19" y2="10.8411" gradientUnits="userSpaceOnUse">
<stop stop-color="#2B5E0F"/>
<stop offset="0.08" stop-color="#3D821F"/>
<stop offset="0.2" stop-color="#53B134"/>
<stop offset="0.31" stop-color="#63D243"/>
<stop offset="0.4" stop-color="#6DE74C"/>
<stop offset="0.46" stop-color="#71EE4F"/>
</linearGradient>
<linearGradient id="paint2_linear_645_1387" x1="171.536" y1="126.812" x2="181.682" y2="83.827" gradientUnits="userSpaceOnUse">
<stop stop-color="#2B5E0F"/>
<stop offset="0.08" stop-color="#3D821F"/>
<stop offset="0.2" stop-color="#53B134"/>
<stop offset="0.31" stop-color="#63D243"/>
<stop offset="0.4" stop-color="#6DE74C"/>
<stop offset="0.46" stop-color="#71EE4F"/>
</linearGradient>
<linearGradient id="paint3_linear_645_1387" x1="77.4707" y1="59.8657" x2="182.602" y2="201.715" gradientUnits="userSpaceOnUse">
<stop stop-color="#2B5E0F"/>
<stop offset="0.08" stop-color="#3D821F"/>
<stop offset="0.2" stop-color="#53B134"/>
<stop offset="0.31" stop-color="#63D243"/>
<stop offset="0.4" stop-color="#6DE74C"/>
<stop offset="0.46" stop-color="#71EE4F"/>
</linearGradient>
<linearGradient id="paint4_linear_645_1387" x1="215.831" y1="102.521" x2="64.5108" y2="268.853" gradientUnits="userSpaceOnUse">
<stop stop-color="#2B5E0F"/>
<stop offset="0.08" stop-color="#3D821F"/>
<stop offset="0.2" stop-color="#53B134"/>
<stop offset="0.31" stop-color="#63D243"/>
<stop offset="0.4" stop-color="#6DE74C"/>
<stop offset="0.46" stop-color="#71EE4F"/>
</linearGradient>
<linearGradient id="paint5_linear_645_1387" x1="121.329" y1="176.308" x2="79.8389" y2="-46.6538" gradientUnits="userSpaceOnUse">
<stop stop-color="#2B5E0F"/>
<stop offset="0.08" stop-color="#3D821F"/>
<stop offset="0.2" stop-color="#53B134"/>
<stop offset="0.31" stop-color="#63D243"/>
<stop offset="0.4" stop-color="#6DE74C"/>
<stop offset="0.46" stop-color="#71EE4F"/>
</linearGradient>
<linearGradient id="paint6_linear_645_1387" x1="140.958" y1="157.679" x2="100.41" y2="-60.178" gradientUnits="userSpaceOnUse">
<stop stop-color="#2B5E0F"/>
<stop offset="0.08" stop-color="#3D821F"/>
<stop offset="0.2" stop-color="#53B134"/>
<stop offset="0.31" stop-color="#63D243"/>
<stop offset="0.4" stop-color="#6DE74C"/>
<stop offset="0.46" stop-color="#71EE4F"/>
</linearGradient>
<clipPath id="clip0_645_1387">
<rect width="259" height="370" fill="white"/>
</clipPath>
</defs>
</svg>
